<svg xmlns="http://www.w3.org/2000/svg" viewBox="0 0 99.01 97.14"><defs><style>.a,.b{fill:#ff79c6;}.b{stroke:#ff79c6;stroke-linejoin:round;stroke-width:5px;}</style></defs><path class="a" d="M129.51,188.78a6.41,6.41,0,0,1,0-9.19,6.62,6.62,0,0,1,9.22,0,6.18,6.18,0,0,1,1.92,4.58,6.49,6.49,0,0,1-11.1,4.61Zm4-24.08a22.38,22.38,0,0,1,2.85-5.43c1.12-1.53,2.58-3.29,4.37-5.31a45,45,0,0,0,5.27-6.9,13.47,13.47,0,0,0,1.75-7,9.34,9.34,0,0,0-1.39-5.47,4.6,4.6,0,0,0-4-2,6.07,6.07,0,0,0-4.53,1.91,6.67,6.67,0,0,0-1.83,4.78,7.32,7.32,0,0,0,1.06,3.88A6.34,6.34,0,0,0,140,145.8v.33a12.42,12.42,0,0,1-3.07,2,7.27,7.27,0,0,1-3.06.73,5.41,5.41,0,0,1-4.28-1.92,7.22,7.22,0,0,1-1.68-4.94,11.56,11.56,0,0,1,2.25-6.94,15.29,15.29,0,0,1,6.08-4.89,19.92,19.92,0,0,1,8.57-1.8q6.61,0,10.45,3a9.93,9.93,0,0,1,3.84,8.25,12.42,12.42,0,0,1-1.39,5.83,18.66,18.66,0,0,1-3.47,4.7q-2.08,2-5.51,4.81-3.67,3.1-5.8,5.23a20.45,20.45,0,0,0-3.63,5,13.77,13.77,0,0,0-1.51,6.49h-5.39A19.87,19.87,0,0,1,133.55,164.7Z" transform="translate(-91.66 -111.6)"/><path class="b" d="M188.17,206.24h-94V114.1h94Zm-90.12-3.31h86.23V117.41H98.05Z" transform="translate(-91.66 -111.6)"/></svg>